<svg width="163" height="163" viewBox="0 0 163 163" fill="none" xmlns="http://www.w3.org/2000/svg">
<path d="M152.532 110.207L100.674 24.205C98.5774 20.9245 95.6883 18.2249 92.2735 16.3548C88.8586 14.4848 85.0279 13.5046 81.1346 13.5046C77.2412 13.5046 73.4105 14.4848 69.9957 16.3548C66.5808 18.2249 63.6917 20.9245 61.5948 24.205L9.73668 110.207C7.90476 113.261 6.90908 116.743 6.84974 120.303C6.7904 123.864 7.66949 127.377 9.39862 130.49C11.3978 133.994 14.2914 136.905 17.7838 138.924C21.2762 140.944 25.2422 142 29.2764 141.984H132.993C137 142.027 140.948 141.012 144.438 139.041C147.929 137.071 150.837 134.215 152.87 130.761C154.65 127.615 155.558 124.052 155.498 120.438C155.439 116.824 154.415 113.292 152.532 110.207ZM141.038 124.067C140.226 125.464 139.047 126.612 137.628 127.387C136.21 128.161 134.607 128.533 132.993 128.462H29.2764C27.662 128.533 26.0589 128.161 24.6407 127.387C23.2225 126.612 22.0432 125.464 21.2307 124.067C20.6372 123.039 20.3248 121.874 20.3248 120.687C20.3248 119.5 20.6372 118.334 21.2307 117.306L73.1564 31.2366C74.0894 30.004 75.2954 29.0045 76.6796 28.3162C78.0638 27.628 79.5887 27.2698 81.1346 27.2698C82.6804 27.2698 84.2053 27.628 85.5895 28.3162C86.9737 29.0045 88.1797 30.004 89.1127 31.2366L140.971 117.239C141.587 118.268 141.918 119.444 141.93 120.644C141.942 121.844 141.634 123.026 141.038 124.067Z" fill="#231F20"/>
<path d="M81.134 114.94C84.8681 114.94 87.8951 111.913 87.8951 108.179C87.8951 104.444 84.8681 101.417 81.134 101.417C77.3999 101.417 74.3728 104.444 74.3728 108.179C74.3728 111.913 77.3999 114.94 81.134 114.94Z" fill="#231F20"/>
<path d="M81.134 54.0893C79.3408 54.0893 77.6211 54.8016 76.3531 56.0696C75.0851 57.3376 74.3728 59.0573 74.3728 60.8505V87.8951C74.3728 89.6883 75.0851 91.408 76.3531 92.676C77.6211 93.9439 79.3408 94.6563 81.134 94.6563C82.9271 94.6563 84.6469 93.9439 85.9148 92.676C87.1828 91.408 87.8951 89.6883 87.8951 87.8951V60.8505C87.8951 59.0573 87.1828 57.3376 85.9148 56.0696C84.6469 54.8016 82.9271 54.0893 81.134 54.0893Z" fill="#231F20"/>
</svg>
