<svg width="22" height="17" viewBox="0 0 22 17" fill="none" xmlns="http://www.w3.org/2000/svg">
<path d="M4.80414 9.14986H14.984L11.8682 12.2186C11.7961 12.2898 11.7418 12.3719 11.7083 12.4603C11.6749 12.5487 11.663 12.6416 11.6734 12.7337C11.6943 12.9198 11.8045 13.0915 11.9798 13.211C12.1551 13.3305 12.3811 13.3879 12.6081 13.3708C12.835 13.3536 13.0444 13.2632 13.1901 13.1195L17.4817 8.89648C17.5106 8.86289 17.5364 8.8276 17.559 8.7909C17.559 8.75571 17.6019 8.7346 17.6191 8.69941C17.658 8.6187 17.6784 8.5328 17.6792 8.44603C17.6784 8.35925 17.658 8.27335 17.6191 8.19265C17.6191 8.15745 17.5762 8.13634 17.559 8.10115C17.5364 8.06445 17.5106 8.02916 17.4817 7.99557L13.1901 3.77256C13.1094 3.69311 13.0083 3.62922 12.8941 3.58542C12.7798 3.54163 12.6553 3.51901 12.5292 3.51918C12.3286 3.51886 12.1342 3.57614 11.9798 3.68106C11.8929 3.74015 11.8211 3.81272 11.7684 3.8946C11.7157 3.97649 11.6833 4.0661 11.6729 4.15828C11.6626 4.25047 11.6745 4.34343 11.708 4.43183C11.7415 4.52024 11.796 4.60235 11.8682 4.67347L14.984 7.74219H4.80414C4.57649 7.74219 4.35817 7.81634 4.1972 7.94834C4.03623 8.08033 3.9458 8.25936 3.9458 8.44603C3.9458 8.63269 4.03623 8.81172 4.1972 8.94371C4.35817 9.07571 4.57649 9.14986 4.80414 9.14986Z" fill="#231F20"/>
</svg>
