<svg width="36" height="34" viewBox="0 0 36 34" fill="none" xmlns="http://www.w3.org/2000/svg">
<path d="M18 16.0417C19.1867 16.0417 20.3467 15.6995 21.3334 15.0586C22.3201 14.4176 23.0892 13.5066 23.5433 12.4407C23.9974 11.3748 24.1162 10.2019 23.8847 9.07031C23.6532 7.93875 23.0818 6.89935 22.2426 6.08355C21.4035 5.26774 20.3344 4.71217 19.1705 4.48709C18.0067 4.26201 16.8003 4.37753 15.7039 4.81904C14.6075 5.26055 13.6705 6.00822 13.0112 6.96751C12.3519 7.9268 12 9.05461 12 10.2083C12 11.7554 12.6321 13.2392 13.7574 14.3331C14.8826 15.4271 16.4087 16.0417 18 16.0417Z" fill="#231F20"/>
<path d="M27 30.625C27.3978 30.625 27.7794 30.4713 28.0607 30.1978C28.342 29.9244 28.5 29.5534 28.5 29.1666C28.5 26.4592 27.3938 23.8627 25.4246 21.9483C23.4555 20.0338 20.7848 18.9583 18 18.9583C15.2152 18.9583 12.5445 20.0338 10.5754 21.9483C8.60625 23.8627 7.5 26.4592 7.5 29.1666C7.5 29.5534 7.65804 29.9244 7.93934 30.1978C8.22064 30.4713 8.60218 30.625 9 30.625H27Z" fill="#231F20"/>
</svg>
