<svg width="117" height="117" viewBox="0 0 117 117" fill="none" xmlns="http://www.w3.org/2000/svg">
<path d="M33.9951 29.1387C35.2831 29.1387 36.5183 28.627 37.4291 27.7162C38.3399 26.8055 38.8515 25.5702 38.8515 24.2822C38.8515 22.9942 38.3399 21.759 37.4291 20.8482C36.5183 19.9374 35.2831 19.4258 33.9951 19.4258H24.2822C22.9942 19.4258 21.7589 19.9374 20.8482 20.8482C19.9374 21.759 19.4258 22.9942 19.4258 24.2822V92.2724C19.4258 93.5604 19.9374 94.7956 20.8482 95.7064C21.7589 96.6172 22.9942 97.1288 24.2822 97.1288H33.9951C35.2831 97.1288 36.5183 96.6172 37.4291 95.7064C38.3399 94.7956 38.8515 93.5604 38.8515 92.2724C38.8515 90.9844 38.3399 89.7491 37.4291 88.8383C36.5183 87.9276 35.2831 87.4159 33.9951 87.4159H29.1386V29.1387H33.9951Z" fill="#231F20"/>
<path d="M101.111 55.4606L87.4159 36.0349C86.6732 34.9879 85.5462 34.2775 84.2812 34.0591C83.0162 33.8407 81.7163 34.132 80.6655 34.8693C80.1402 35.2374 79.6931 35.7058 79.3499 36.2476C79.0067 36.7894 78.7742 37.3938 78.6658 38.0259C78.5574 38.6581 78.5753 39.3054 78.7185 39.9306C78.8617 40.5557 79.1273 41.1464 79.4999 41.6683L87.853 53.4209H87.4159H48.5644C47.2764 53.4209 46.0411 53.9326 45.1304 54.8433C44.2196 55.7541 43.708 56.9893 43.708 58.2774C43.708 59.5654 44.2196 60.8006 45.1304 61.7114C46.0411 62.6221 47.2764 63.1338 48.5644 63.1338H87.4159L78.6743 74.7892C78.2917 75.2994 78.0132 75.88 77.855 76.4978C77.6967 77.1156 77.6616 77.7586 77.7518 78.3899C77.842 79.0213 78.0557 79.6287 78.3806 80.1774C78.7056 80.7262 79.1354 81.2056 79.6456 81.5883C80.4862 82.2187 81.5087 82.5595 82.5595 82.5595C83.3134 82.5595 84.057 82.384 84.7313 82.0468C85.4057 81.7097 85.9923 81.2201 86.4446 80.617L101.014 61.1912C101.636 60.3698 101.981 59.3719 101.998 58.3418C102.015 57.3116 101.705 56.3026 101.111 55.4606V55.4606Z" fill="#231F20"/>
</svg>
