<svg width="29" height="27" viewBox="0 0 29 27" fill="none" xmlns="http://www.w3.org/2000/svg">
<path d="M25.0246 21.7013L20.9163 17.8875C22.2418 16.3153 22.961 14.3737 22.9583 12.375C22.9583 10.595 22.3914 8.85491 21.3292 7.37487C20.267 5.89483 18.7573 4.74128 16.9909 4.06009C15.2246 3.3789 13.2809 3.20067 11.4058 3.54794C9.53065 3.8952 7.80821 4.75237 6.45631 6.01104C5.1044 7.26972 4.18374 8.87336 3.81075 10.6192C3.43776 12.365 3.62919 14.1746 4.36084 15.8192C5.09248 17.4637 6.33148 18.8693 7.92116 19.8582C9.51083 20.8472 11.3798 21.375 13.2917 21.375C15.4385 21.3775 17.5238 20.7079 19.2125 19.4738L23.3088 23.2988C23.4211 23.4042 23.5547 23.4879 23.702 23.545C23.8492 23.6021 24.0072 23.6315 24.1667 23.6315C24.3262 23.6315 24.4841 23.6021 24.6314 23.545C24.7786 23.4879 24.9123 23.4042 25.0246 23.2988C25.1378 23.1942 25.2277 23.0697 25.2891 22.9327C25.3504 22.7956 25.382 22.6485 25.382 22.5C25.382 22.3515 25.3504 22.2044 25.2891 22.0674C25.2277 21.9303 25.1378 21.8058 25.0246 21.7013ZM6.04167 12.375C6.04167 11.04 6.46688 9.73494 7.26352 8.62491C8.06016 7.51487 9.19245 6.64971 10.5172 6.13882C11.842 5.62793 13.2997 5.49425 14.7061 5.7547C16.1124 6.01515 17.4043 6.65803 18.4182 7.60203C19.4321 8.54604 20.1226 9.74877 20.4024 11.0581C20.6821 12.3675 20.5385 13.7247 19.9898 14.9581C19.4411 16.1915 18.5118 17.2457 17.3196 17.9874C16.1273 18.7291 14.7256 19.125 13.2917 19.125C11.3689 19.125 9.52479 18.4138 8.16515 17.148C6.80551 15.8821 6.04167 14.1652 6.04167 12.375Z" fill="#231F20"/>
</svg>
